<svg width="24" height="24" viewBox="0 0 24 24" fill="none" xmlns="http://www.w3.org/2000/svg">
<rect width="24" height="24" rx="8" fill="#5F9BFF"/>
<path fill-rule="evenodd" clip-rule="evenodd" d="M9.33333 4.5835C9.74755 4.5835 10.0833 4.91928 10.0833 5.3335V5.91683H13.9167V5.3335C13.9167 4.91928 14.2525 4.5835 14.6667 4.5835C15.0809 4.5835 15.4167 4.91928 15.4167 5.3335V5.91683H16.6667C17.8173 5.91683 18.75 6.84957 18.75 8.00016V17.3335C18.75 18.4841 17.8173 19.4168 16.6667 19.4168H7.33333C6.18274 19.4168 5.25 18.4841 5.25 17.3335V8.00016C5.25 6.84957 6.18274 5.91683 7.33333 5.91683H8.58333V5.3335C8.58333 4.91928 8.91912 4.5835 9.33333 4.5835ZM8.58333 7.41683H7.33333C7.01117 7.41683 6.75 7.678 6.75 8.00016V9.91683H17.25V8.00016C17.25 7.678 16.9888 7.41683 16.6667 7.41683H15.4167V8.00016C15.4167 8.41438 15.0809 8.75016 14.6667 8.75016C14.2525 8.75016 13.9167 8.41438 13.9167 8.00016V7.41683H10.0833V8.00016C10.0833 8.41438 9.74755 8.75016 9.33333 8.75016C8.91912 8.75016 8.58333 8.41438 8.58333 8.00016V7.41683Z" fill="white"/>
<path d="M11.6617 17H7.76331V16.2266L9.60315 14.2656C9.85575 13.9896 10.042 13.7487 10.1617 13.543C10.2841 13.3372 10.3453 13.1419 10.3453 12.957C10.3453 12.7044 10.2815 12.5065 10.1539 12.3633C10.0263 12.2174 9.84403 12.1445 9.60706 12.1445C9.35185 12.1445 9.15002 12.2331 9.00159 12.4102C8.85575 12.5846 8.78284 12.8151 8.78284 13.1016H7.65002C7.65002 12.7552 7.73206 12.4388 7.89612 12.1523C8.06278 11.8659 8.29716 11.6419 8.59924 11.4805C8.90133 11.3164 9.24377 11.2344 9.62659 11.2344C10.2125 11.2344 10.667 11.375 10.9899 11.6562C11.3154 11.9375 11.4781 12.3346 11.4781 12.8477C11.4781 13.1289 11.4052 13.4154 11.2594 13.707C11.1136 13.9987 10.8636 14.3385 10.5094 14.7266L9.21643 16.0898H11.6617V17Z" fill="#5F9BFF"/>
<path d="M15.6969 14.8594H16.3414V15.7695H15.6969V17H14.568V15.7695H12.236L12.1852 15.0586L14.5563 11.3125H15.6969V14.8594ZM13.3102 14.8594H14.568V12.8516L14.4938 12.9805L13.3102 14.8594Z" fill="#5F9BFF"/>
</svg>
