<svg width="14" height="14" viewBox="0 0 14 14" fill="none" xmlns="http://www.w3.org/2000/svg">
<path fill-rule="evenodd" clip-rule="evenodd" d="M13.228 0.771972C13.5907 1.1346 13.5907 1.72254 13.228 2.08517L2.08517 13.228C1.72254 13.5907 1.1346 13.5907 0.771972 13.228C0.409343 12.8654 0.409343 12.2775 0.771972 11.9148L11.9148 0.771972C12.2775 0.409343 12.8654 0.409343 13.228 0.771972Z" fill="#7F8FAC"/>
<path fill-rule="evenodd" clip-rule="evenodd" d="M0.771972 0.771972C1.1346 0.409343 1.72254 0.409343 2.08517 0.771972L13.228 11.9148C13.5907 12.2775 13.5907 12.8654 13.228 13.228C12.8654 13.5907 12.2775 13.5907 11.9148 13.228L0.771972 2.08517C0.409343 1.72254 0.409343 1.1346 0.771972 0.771972Z" fill="#7F8FAC"/>
</svg>
