<svg width="20" height="20" viewBox="0 0 20 20" fill="none" xmlns="http://www.w3.org/2000/svg">
<path d="M14.0298 4.91371L8.20968 7.57379C7.92819 7.70246 7.70246 7.92819 7.57379 8.20968L4.91371 14.0298C4.60685 14.7012 5.29839 15.3931 5.97016 15.0863L11.7903 12.4262C12.0718 12.2975 12.2975 12.0718 12.4262 11.7903L15.0863 5.97016C15.3931 5.29839 14.7016 4.60685 14.0298 4.91371ZM10.9105 10.9105C10.4077 11.4133 9.59234 11.4133 9.08952 10.9105C8.58669 10.4077 8.58669 9.59234 9.08952 9.08952C9.59234 8.58669 10.4077 8.58669 10.9105 9.08952C11.4133 9.59234 11.4133 10.4077 10.9105 10.9105ZM10 0C4.47702 0 0 4.47702 0 10C0 15.523 4.47702 20 10 20C15.523 20 20 15.523 20 10C20 4.47702 15.523 0 10 0ZM10 18.0645C5.55323 18.0645 1.93548 14.4468 1.93548 10C1.93548 5.55323 5.55323 1.93548 10 1.93548C14.4468 1.93548 18.0645 5.55323 18.0645 10C18.0645 14.4468 14.4468 18.0645 10 18.0645Z" fill="#3983FF"/>
</svg>
