<svg width="24" height="24" viewBox="0 0 24 24" fill="none" xmlns="http://www.w3.org/2000/svg">
<g clip-path="url(#clip0_3:562)">
<path d="M21.4105 10.6667C22.8482 10.5102 23.9935 9.29176 23.9935 7.79866C23.9935 6.44664 23.0544 5.27453 21.8092 5.02046C21.4681 2.20257 19.1271 0 16.2878 0C14.2909 0 12.5407 1.06898 11.5588 2.68926C11.5344 2.68897 11.5101 2.68202 11.4858 2.68202C9.38029 2.68202 7.67352 4.51436 7.67352 6.67434C7.67352 8.75843 9.26272 10.5099 11.2657 10.6664H21.4105V10.6667Z" fill="url(#paint0_linear_3:562)"/>
<path d="M21.4105 10.6667C22.8482 10.5102 23.9935 9.29176 23.9935 7.79866C23.9935 6.44664 23.0544 5.27453 21.8092 5.02046C21.4681 2.20257 19.1271 0 16.2878 0C14.2909 0 12.5407 1.06898 11.5588 2.68926C11.5344 2.68897 11.5101 2.68202 11.4858 2.68202C9.38029 2.68202 7.67352 4.51436 7.67352 6.67434C7.67352 8.75843 9.26272 10.5099 11.2657 10.6664H21.4105V10.6667Z" fill="url(#paint1_linear_3:562)" fill-opacity="0.2"/>
<path d="M16.5259 17.1652C18.6747 17.1652 20.4251 15.3371 20.4251 13.1643C20.4251 11.3361 19.2401 9.80819 17.5728 9.3101C17.5286 7.68111 16.1965 6.38058 14.5558 6.38058C14.0789 6.38058 13.6298 6.49741 13.2282 6.69449C12.519 5.01145 10.8533 3.83191 8.91153 3.83191C6.79435 3.83191 5.00661 5.23804 4.42722 7.16639C1.92488 7.46782 0.00683594 9.56746 0.00683594 12.1506C0.00683594 14.8569 2.0855 17.1648 4.82837 17.1648H16.5259V17.1652Z" fill="url(#paint2_linear_3:562)"/>
<path fill-rule="evenodd" clip-rule="evenodd" d="M8.40541 19.3672L7.18626 21.5003C7.05708 21.7242 6.82399 21.8498 6.58616 21.8498C6.46907 21.8498 6.35258 21.8194 6.24548 21.7594C5.91242 21.5734 5.7962 21.15 5.98605 20.8179L7.20521 18.6847C7.39512 18.3484 7.81849 18.2357 8.14699 18.4257C8.47857 18.6153 8.59581 19.0381 8.40541 19.3672Z" fill="#7BD6FF"/>
<path fill-rule="evenodd" clip-rule="evenodd" d="M2.60825 23.6511C2.47907 23.875 2.24614 24.0003 2.00831 24.0003C1.89125 24.0003 1.77479 23.9699 1.66771 23.91C1.33459 23.724 1.21833 23.3006 1.4082 22.9684L3.85644 18.6847C4.04635 18.3484 4.46971 18.2357 4.79822 18.4257C5.1298 18.6153 5.24715 19.0379 5.05676 19.367L2.60825 23.6511Z" fill="#7BD6FF"/>
<g filter="url(#filter0_d_3:562)">
<path fill-rule="evenodd" clip-rule="evenodd" d="M10.7886 8.66687L8.49744 15.438H12.0767L9.83615 22.0002L16.8308 12.6696L12.9757 12.5803L14.3182 8.75717L10.7886 8.66687Z" fill="url(#paint3_linear_3:562)"/>
</g>
<path d="M18.62 19.3264L18.3699 18.892C18.3011 18.7732 18.1479 18.7326 18.0291 18.8014L17.1537 19.3045V18.417C17.1537 18.2795 17.0412 18.167 16.9036 18.167H16.4034C16.2658 18.167 16.1533 18.2795 16.1533 18.417V19.3045L15.2779 18.8014C15.1591 18.7326 15.0059 18.7732 14.9371 18.892L14.687 19.3264C14.6182 19.4451 14.6588 19.5982 14.7776 19.667L15.6499 20.167L14.7776 20.667C14.6588 20.7357 14.6182 20.8889 14.687 21.0076L14.9371 21.442C15.0059 21.5607 15.1591 21.6014 15.2779 21.5326L16.1533 21.0295V21.917C16.1533 22.0545 16.2658 22.167 16.4034 22.167H16.9036C17.0412 22.167 17.1537 22.0545 17.1537 21.917V21.0295L18.0291 21.5326C18.1479 21.6014 18.3011 21.5607 18.3699 21.442L18.62 21.0076C18.6888 20.8889 18.6482 20.7357 18.5294 20.667L17.6571 20.167L18.5294 19.667C18.6482 19.5982 18.6888 19.4451 18.62 19.3264Z" fill="#7BD6FF"/>
</g>
<defs>
<filter id="filter0_d_3:562" x="6.49744" y="5.66687" width="16.3333" height="21.3334" filterUnits="userSpaceOnUse" color-interpolation-filters="sRGB">
<feFlood flood-opacity="0" result="BackgroundImageFix"/>
<feColorMatrix in="SourceAlpha" type="matrix" values="0 0 0 0 0 0 0 0 0 0 0 0 0 0 0 0 0 0 127 0" result="hardAlpha"/>
<feOffset dx="2" dy="1"/>
<feGaussianBlur stdDeviation="2"/>
<feColorMatrix type="matrix" values="0 0 0 0 0 0 0 0 0 0 0 0 0 0 0 0 0 0 0.1 0"/>
<feBlend mode="normal" in2="BackgroundImageFix" result="effect1_dropShadow_3:562"/>
<feBlend mode="normal" in="SourceGraphic" in2="effect1_dropShadow_3:562" result="shape"/>
</filter>
<linearGradient id="paint0_linear_3:562" x1="7.67352" y1="0" x2="17.4434" y2="14.9478" gradientUnits="userSpaceOnUse">
<stop stop-color="#71D1FF"/>
<stop offset="1" stop-color="#40C2FF"/>
</linearGradient>
<linearGradient id="paint1_linear_3:562" x1="15.8335" y1="0" x2="15.8335" y2="10.6667" gradientUnits="userSpaceOnUse">
<stop stop-color="#0D4B69" stop-opacity="0"/>
<stop offset="1" stop-color="#0D4B69" stop-opacity="0.5"/>
</linearGradient>
<linearGradient id="paint2_linear_3:562" x1="0.00683594" y1="3.83191" x2="12.2147" y2="22.5267" gradientUnits="userSpaceOnUse">
<stop stop-color="#B0EAFF"/>
<stop offset="1" stop-color="#59CAFF"/>
</linearGradient>
<linearGradient id="paint3_linear_3:562" x1="12.6641" y1="8.66687" x2="12.6641" y2="22.0002" gradientUnits="userSpaceOnUse">
<stop stop-color="#FFF733"/>
<stop offset="1" stop-color="#FFD600"/>
</linearGradient>
<clipPath id="clip0_3:562">
<rect width="24" height="24" fill="white"/>
</clipPath>
</defs>
</svg>
