<svg width="24" height="24" viewBox="0 0 24 24" fill="none" xmlns="http://www.w3.org/2000/svg">
<path d="M21.4105 14.3334C22.8483 14.177 23.9936 12.9585 23.9936 11.4654C23.9936 10.1134 23.0545 8.94127 21.8093 8.68721C21.4682 5.86932 19.1272 3.66675 16.2879 3.66675C14.291 3.66675 12.5408 4.73573 11.5589 6.35601C11.5345 6.35572 11.5102 6.34877 11.4859 6.34877C9.38038 6.34877 7.67361 8.18111 7.67361 10.3411C7.67361 12.4252 9.26281 14.1767 11.2658 14.3331H21.4105V14.3334Z" fill="url(#paint0_linear_3:577)"/>
<path d="M21.4105 14.3334C22.8483 14.177 23.9936 12.9585 23.9936 11.4654C23.9936 10.1134 23.0545 8.94127 21.8093 8.68721C21.4682 5.86932 19.1272 3.66675 16.2879 3.66675C14.291 3.66675 12.5408 4.73573 11.5589 6.35601C11.5345 6.35572 11.5102 6.34877 11.4859 6.34877C9.38038 6.34877 7.67361 8.18111 7.67361 10.3411C7.67361 12.4252 9.26281 14.1767 11.2658 14.3331H21.4105V14.3334Z" fill="url(#paint1_linear_3:577)" fill-opacity="0.2"/>
<path d="M16.5259 21.1651C18.6746 21.1651 20.4251 19.337 20.4251 17.1642C20.4251 15.336 19.2401 13.8081 17.5728 13.31C17.5285 11.681 16.1965 10.3805 14.5558 10.3805C14.0789 10.3805 13.6298 10.4973 13.2282 10.6944C12.5189 9.01133 10.8533 7.83179 8.9115 7.83179C6.79432 7.83179 5.00658 9.23792 4.42719 11.1663C1.92485 11.4677 0.00680542 13.5673 0.00680542 16.1505C0.00680542 18.8568 2.08547 21.1647 4.82834 21.1647H16.5259V21.1651Z" fill="url(#paint2_linear_3:577)"/>
<defs>
<linearGradient id="paint0_linear_3:577" x1="7.67361" y1="3.66675" x2="17.4434" y2="18.6145" gradientUnits="userSpaceOnUse">
<stop stop-color="#71D1FF"/>
<stop offset="1" stop-color="#40C2FF"/>
</linearGradient>
<linearGradient id="paint1_linear_3:577" x1="15.8336" y1="3.66675" x2="15.8336" y2="14.3334" gradientUnits="userSpaceOnUse">
<stop stop-color="#0D4B69" stop-opacity="0"/>
<stop offset="1" stop-color="#0D4B69" stop-opacity="0.5"/>
</linearGradient>
<linearGradient id="paint2_linear_3:577" x1="0.00680542" y1="7.83179" x2="12.2147" y2="26.5266" gradientUnits="userSpaceOnUse">
<stop stop-color="#B0EAFF"/>
<stop offset="1" stop-color="#59CAFF"/>
</linearGradient>
</defs>
</svg>
