<svg width="24" height="24" viewBox="0 0 24 24" fill="none" xmlns="http://www.w3.org/2000/svg">
<g clip-path="url(#clip0_3:587)">
<path d="M11.9997 19.0649L8.98099 21.3323L7.86557 17.7158L4.09692 17.7674L5.31028 14.1829L2.23096 11.9996L5.31028 9.81637L4.09692 6.23124L7.86557 6.28345L8.98099 2.66699L11.9997 4.93381L15.0184 2.66699L16.1338 6.28345L19.9031 6.23124L18.6891 9.81637L21.7685 11.9996L18.6891 14.1829L19.9031 17.7674L16.1338 17.7158L15.0184 21.3323L11.9997 19.0649Z" fill="url(#paint0_linear_3:587)"/>
<g filter="url(#filter0_d_3:587)">
<path d="M11.9995 17.3898C14.9761 17.3898 17.3892 14.9765 17.3892 11.9995C17.3892 9.02255 14.9761 6.60925 11.9995 6.60925C9.02281 6.60925 6.60974 9.02255 6.60974 11.9995C6.60974 14.9765 9.02281 17.3898 11.9995 17.3898Z" fill="#FFF59D"/>
</g>
</g>
<defs>
<filter id="filter0_d_3:587" x="-1.39026" y="2.60925" width="26.7795" height="26.7805" filterUnits="userSpaceOnUse" color-interpolation-filters="sRGB">
<feFlood flood-opacity="0" result="BackgroundImageFix"/>
<feColorMatrix in="SourceAlpha" type="matrix" values="0 0 0 0 0 0 0 0 0 0 0 0 0 0 0 0 0 0 127 0" result="hardAlpha"/>
<feOffset dy="4"/>
<feGaussianBlur stdDeviation="4"/>
<feColorMatrix type="matrix" values="0 0 0 0 0 0 0 0 0 0 0 0 0 0 0 0 0 0 0.03 0"/>
<feBlend mode="normal" in2="BackgroundImageFix" result="effect1_dropShadow_3:587"/>
<feBlend mode="normal" in="SourceGraphic" in2="effect1_dropShadow_3:587" result="shape"/>
</filter>
<linearGradient id="paint0_linear_3:587" x1="2.23096" y1="2.66699" x2="20.8768" y2="22.1841" gradientUnits="userSpaceOnUse">
<stop stop-color="#FFDA57"/>
<stop offset="1" stop-color="#FCCF2E"/>
</linearGradient>
<clipPath id="clip0_3:587">
<rect width="24" height="24" fill="white"/>
</clipPath>
</defs>
</svg>
