<svg width="24" height="24" viewBox="0 0 24 24" fill="none" xmlns="http://www.w3.org/2000/svg">
<rect width="24" height="24" rx="8" fill="#5F9BFF"/>
<path d="M7.3312 5.44185C7.81467 5.24846 8.52701 5.07996 9.53629 5.07996C10.6062 5.07996 11.4919 5.43439 12.2405 5.73396L12.2808 5.75009C13.065 6.06377 13.708 6.31294 14.4682 6.31294C15.3084 6.31294 15.8291 6.1732 16.1162 6.05834C16.2605 6.00064 16.3493 5.94786 16.393 5.91874C16.4096 5.90763 16.42 5.89977 16.4246 5.89614C16.6388 5.69773 16.9499 5.64114 17.2212 5.75354C17.5015 5.86963 17.6842 6.1431 17.6842 6.44645V11.9949C17.6842 12.1938 17.6052 12.3846 17.4645 12.5252C17.4249 12.5578 17.2897 12.6721 17.225 12.7153C17.0953 12.8017 16.9144 12.9031 16.6733 12.9995C16.1899 13.1929 15.4775 13.3614 14.4682 13.3614C13.3983 13.3614 12.5126 13.007 11.764 12.7074L11.7237 12.6913C10.9395 12.3776 10.2965 12.1284 9.53629 12.1284C8.69609 12.1284 8.17544 12.2681 7.88829 12.383C7.86408 12.3927 7.84144 12.4022 7.82031 12.4115V18.16C7.82031 18.5742 7.48453 18.91 7.07031 18.91C6.6561 18.91 6.32031 18.5742 6.32031 18.16V6.44645C6.32031 6.24754 6.43253 6.02522 6.57318 5.88457C6.58708 5.87194 6.60385 5.85731 6.62363 5.84101C6.66323 5.8084 6.71479 5.76923 6.77951 5.72609C6.90922 5.63961 7.09013 5.53827 7.3312 5.44185Z" fill="white"/>
</svg>
