<svg width="20" height="20" viewBox="0 0 20 20" fill="none" xmlns="http://www.w3.org/2000/svg">
<path d="M9.98996 3.32996C6.30996 3.32996 3.32996 6.31662 3.32996 9.99662C3.32996 13.6766 6.30996 16.6633 9.98996 16.6633C13.6766 16.6633 16.6633 13.6766 16.6633 9.99662C16.6633 6.31662 13.6766 3.32996 9.98996 3.32996ZM14.61 7.32996H12.6433C12.43 6.49662 12.1233 5.69662 11.7233 4.95662C12.95 5.37662 13.97 6.22996 14.61 7.32996ZM9.99662 4.68996C10.55 5.48996 10.9833 6.37662 11.27 7.32996H8.72329C9.00996 6.37662 9.44329 5.48996 9.99662 4.68996ZM4.83662 11.33C4.72996 10.9033 4.66329 10.4566 4.66329 9.99662C4.66329 9.53662 4.72996 9.08996 4.83662 8.66329H7.08996C7.03662 9.10329 6.99662 9.54329 6.99662 9.99662C6.99662 10.45 7.03662 10.89 7.08996 11.33H4.83662ZM5.38329 12.6633H7.34996C7.56329 13.4966 7.86996 14.2966 8.26996 15.0366C7.04329 14.6166 6.02329 13.77 5.38329 12.6633ZM7.34996 7.32996H5.38329C6.02329 6.22329 7.04329 5.37662 8.26996 4.95662C7.86996 5.69662 7.56329 6.49662 7.34996 7.32996ZM9.99662 15.3033C9.44329 14.5033 9.00996 13.6166 8.72329 12.6633H11.27C10.9833 13.6166 10.55 14.5033 9.99662 15.3033ZM11.5566 11.33H8.43662C8.37662 10.89 8.32996 10.45 8.32996 9.99662C8.32996 9.54329 8.37662 9.09662 8.43662 8.66329H11.5566C11.6166 9.09662 11.6633 9.54329 11.6633 9.99662C11.6633 10.45 11.6166 10.89 11.5566 11.33ZM11.7233 15.0366C12.1233 14.2966 12.43 13.4966 12.6433 12.6633H14.61C13.97 13.7633 12.95 14.6166 11.7233 15.0366ZM12.9033 11.33C12.9566 10.89 12.9966 10.45 12.9966 9.99662C12.9966 9.54329 12.9566 9.10329 12.9033 8.66329H15.1566C15.2633 9.08996 15.33 9.53662 15.33 9.99662C15.33 10.4566 15.2633 10.9033 15.1566 11.33H12.9033Z" fill="white"/>
</svg>
