<svg width="156" height="32" viewBox="0 0 156 32" fill="none" xmlns="http://www.w3.org/2000/svg">
<path d="M12.6562 25V22.9492L14.4727 22.5977V10.3516L12.6562 10V7.9375H19.5352L24.1875 19.832H24.2578L28.7578 7.9375H35.6484V10L33.8203 10.3516V22.5977L35.6484 22.9492V25H28.582V22.9492L30.4922 22.5977V19.3281L30.5508 11.6289L30.4805 11.6172L25.3828 24.7656H22.793L17.5781 11.7227L17.5078 11.7344L17.707 18.9766V22.5977L19.7227 22.9492V25H12.6562ZM36.8672 25V22.9492L38.6836 22.5977V10.3516L36.8672 10V7.9375H50.1094V12.543H47.4844L47.332 10.5742H42.1055V14.8633H47.8828V17.5H42.1055V22.375H47.6133L47.7656 20.3359H50.3672V25H36.8672ZM56.3555 25V22.9492L58.1836 22.5977V10.5742H55.0781L54.8906 12.6133H52.3008V7.9375H67.5234V12.6133H64.9219L64.7344 10.5742H61.6055V22.5977L63.4453 22.9492V25H56.3555ZM66.4336 25V22.9492L67.6523 22.7734L73.0781 7.9375H76.582L81.9727 22.7734L83.1914 22.9492V25H77.3789V22.9492L78.5625 22.7383L77.8125 20.3945H71.8125L71.0625 22.7383L72.2461 22.9492V25H66.4336ZM72.6211 17.875H77.0039L75.0117 12.0273L74.8477 11.5117H74.7773L74.6016 12.0625L72.6211 17.875Z" fill="white"/>
<path d="M88 6L93 16L88 26" stroke="white" stroke-opacity="0.4" stroke-width="2"/>
<path d="M7 26L2 16L7 6" stroke="white" stroke-opacity="0.4" stroke-width="2"/>
<path d="M108.506 21H107.375V13.3945H103.168V21H102.043V12.4688H108.506V21ZM118.319 17.0098C118.319 17.8457 118.179 18.5762 117.897 19.2012C117.616 19.8223 117.218 20.2969 116.702 20.625C116.186 20.9531 115.585 21.1172 114.897 21.1172C114.225 21.1172 113.63 20.9531 113.11 20.625C112.591 20.293 112.186 19.8223 111.897 19.2129C111.612 18.5996 111.466 17.8906 111.458 17.0859V16.4707C111.458 15.6504 111.6 14.9258 111.886 14.2969C112.171 13.668 112.573 13.1875 113.093 12.8555C113.616 12.5195 114.214 12.3516 114.886 12.3516C115.569 12.3516 116.171 12.5176 116.69 12.8496C117.214 13.1777 117.616 13.6562 117.897 14.2852C118.179 14.9102 118.319 15.6387 118.319 16.4707V17.0098ZM117.2 16.459C117.2 15.4473 116.997 14.6719 116.591 14.1328C116.184 13.5898 115.616 13.3184 114.886 13.3184C114.175 13.3184 113.614 13.5898 113.204 14.1328C112.798 14.6719 112.589 15.4219 112.577 16.3828V17.0098C112.577 17.9902 112.782 18.7617 113.192 19.3242C113.606 19.8828 114.175 20.1621 114.897 20.1621C115.624 20.1621 116.186 19.8984 116.585 19.3711C116.983 18.8398 117.188 18.0801 117.2 17.0918V16.459ZM126.498 13.3945H122.384V21H121.254V12.4688H126.498V13.3945ZM135.25 17.0098C135.25 17.8457 135.11 18.5762 134.829 19.2012C134.547 19.8223 134.149 20.2969 133.633 20.625C133.118 20.9531 132.516 21.1172 131.829 21.1172C131.157 21.1172 130.561 20.9531 130.041 20.625C129.522 20.293 129.118 19.8223 128.829 19.2129C128.543 18.5996 128.397 17.8906 128.389 17.0859V16.4707C128.389 15.6504 128.532 14.9258 128.817 14.2969C129.102 13.668 129.504 13.1875 130.024 12.8555C130.547 12.5195 131.145 12.3516 131.817 12.3516C132.5 12.3516 133.102 12.5176 133.621 12.8496C134.145 13.1777 134.547 13.6562 134.829 14.2852C135.11 14.9102 135.25 15.6387 135.25 16.4707V17.0098ZM134.131 16.459C134.131 15.4473 133.928 14.6719 133.522 14.1328C133.116 13.5898 132.547 13.3184 131.817 13.3184C131.106 13.3184 130.545 13.5898 130.135 14.1328C129.729 14.6719 129.52 15.4219 129.508 16.3828V17.0098C129.508 17.9902 129.713 18.7617 130.123 19.3242C130.538 19.8828 131.106 20.1621 131.829 20.1621C132.555 20.1621 133.118 19.8984 133.516 19.3711C133.914 18.8398 134.12 18.0801 134.131 17.0918V16.459ZM145.614 23.0918H144.495V21H138.372V23.0977H137.247L137.241 20.0801H137.939C138.306 19.666 138.597 19.1113 138.812 18.416C139.03 17.7168 139.167 16.9512 139.222 16.1191L139.409 12.4688H144.513V20.0801H145.626L145.614 23.0918ZM139.222 20.0801H143.382V13.3945H140.493L140.37 15.9023C140.32 16.8828 140.189 17.7188 139.978 18.4102C139.771 19.1016 139.519 19.6582 139.222 20.0801ZM152.967 18.7734H149.393L148.59 21H147.43L150.688 12.4688H151.672L154.936 21H153.781L152.967 18.7734ZM149.732 17.8477H152.633L151.18 13.8574L149.732 17.8477Z" fill="white" fill-opacity="0.8"/>
</svg>
