<svg width="24" height="24" viewBox="0 0 24 24" fill="none" xmlns="http://www.w3.org/2000/svg">
<rect width="24" height="24" rx="8" fill="#5F9BFF"/>
<path fill-rule="evenodd" clip-rule="evenodd" d="M9.13839 5.1286C9.35612 5.00419 9.62161 4.99682 9.8459 5.10897L14.4578 7.41491L18.4588 5.1286C18.691 4.99596 18.9762 4.99691 19.2074 5.1311C19.4386 5.26529 19.5809 5.51243 19.5809 5.77979V15.7216C19.5809 15.9907 19.4367 16.2393 19.2031 16.3728L14.8535 18.8582C14.6358 18.9827 14.3703 18.99 14.146 18.8779L9.5341 16.5719L5.53305 18.8582C5.30093 18.9909 5.01574 18.9899 4.7845 18.8557C4.55327 18.7215 4.41095 18.4744 4.41095 18.2071V8.26524C4.41095 7.9961 4.55516 7.74759 4.78885 7.61406L9.13839 5.1286ZM10.2584 15.257L13.7314 16.9935V8.72877L10.2602 6.99318L10.2584 15.257Z" fill="white"/>
</svg>
