<svg width="18" height="18" viewBox="0 0 18 18" fill="none" xmlns="http://www.w3.org/2000/svg">
<path d="M17 13H1.00001C0.447719 13 0 13.4477 0 14C0 14.5523 0.447719 15 1.00001 15H17C17.5523 15 18 14.5523 18 14C18 13.4477 17.5523 13 17 13Z" fill="white"/>
<path d="M11 8H1.00001C0.447719 8 0 8.44772 0 9.00001C0 9.5523 0.447719 10 1.00001 10H11C11.5523 10 12 9.5523 12 9.00001C12 8.44772 11.5523 8 11 8Z" fill="white"/>
<path d="M17 3H1C0.447717 3 0 3.44772 0 4C0 4.55229 0.447717 5.00001 1 5.00001H17C17.5523 5.00001 18 4.55229 18 4C18 3.44772 17.5523 3 17 3Z" fill="white"/>
</svg>
