<svg width="24" height="24" viewBox="0 0 24 24" fill="none" xmlns="http://www.w3.org/2000/svg">
<g clip-path="url(#clip0_3:551)">
<path d="M21.4034 10.6667C22.8411 10.5102 23.9864 9.29176 23.9864 7.79866C23.9864 6.44664 23.0473 5.27453 21.8021 5.02046C21.461 2.20257 19.1201 0 16.2808 0C14.2839 0 12.5337 1.06898 11.5517 2.68926C11.5274 2.68897 11.5031 2.68202 11.4787 2.68202C9.37324 2.68202 7.66647 4.51436 7.66647 6.67434C7.66647 8.75843 9.25567 10.5099 11.2587 10.6664H21.4034V10.6667Z" fill="url(#paint0_linear_3:551)"/>
<path d="M21.4034 10.6667C22.8411 10.5102 23.9864 9.29176 23.9864 7.79866C23.9864 6.44664 23.0473 5.27453 21.8021 5.02046C21.461 2.20257 19.1201 0 16.2808 0C14.2839 0 12.5337 1.06898 11.5517 2.68926C11.5274 2.68897 11.5031 2.68202 11.4787 2.68202C9.37324 2.68202 7.66647 4.51436 7.66647 6.67434C7.66647 8.75843 9.25567 10.5099 11.2587 10.6664H21.4034V10.6667Z" fill="url(#paint1_linear_3:551)" fill-opacity="0.25"/>
<path d="M16.5191 17.1652C18.6678 17.1652 20.4183 15.3371 20.4183 13.1643C20.4183 11.3361 19.2333 9.80819 17.566 9.3101C17.5217 7.68111 16.1896 6.38058 14.549 6.38058C14.0721 6.38058 13.623 6.49741 13.2214 6.69449C12.5121 5.01145 10.8465 3.83191 8.90469 3.83191C6.78751 3.83191 4.99977 5.23804 4.42039 7.16639C1.91804 7.46782 0 9.56746 0 12.1506C0 14.8569 2.07866 17.1648 4.82153 17.1648H16.5191V17.1652Z" fill="url(#paint2_linear_3:551)"/>
<path fill-rule="evenodd" clip-rule="evenodd" d="M11.2768 19.5307L8.9146 23.6638C8.78996 23.8797 8.56506 24.0009 8.33559 24.0009C8.22262 24.0009 8.11022 23.9716 8.00688 23.9138C7.68553 23.7343 7.57339 23.3258 7.75657 23.0053L10.1188 18.8722C10.302 18.5477 10.7105 18.4389 11.0274 18.6223C11.3474 18.8052 11.4604 19.2132 11.2768 19.5307ZM14.8204 19.5307L12.4582 23.6638C12.3336 23.8797 12.1087 24.0009 11.8792 24.0009C11.7662 24.0009 11.6538 23.9716 11.5505 23.9138C11.2291 23.7343 11.117 23.3258 11.3002 23.0053L13.6624 18.8722C13.8456 18.5477 14.2541 18.4389 14.571 18.6223C14.8909 18.8052 15.004 19.2132 14.8204 19.5307ZM7.73319 19.5307L5.371 23.6638C5.24637 23.8797 5.02147 24.0009 4.79199 24.0009C4.67903 24.0009 4.56663 23.9716 4.46329 23.9138C4.14193 23.7343 4.0298 23.3258 4.21298 23.0053L6.57517 18.8722C6.7584 18.5477 7.16689 18.4389 7.48385 18.6223C7.80378 18.8052 7.91689 19.2132 7.73319 19.5307Z" fill="#6DD1FF"/>
</g>
<defs>
<linearGradient id="paint0_linear_3:551" x1="7.66647" y1="0" x2="17.4363" y2="14.9478" gradientUnits="userSpaceOnUse">
<stop stop-color="#71D1FF"/>
<stop offset="1" stop-color="#40C2FF"/>
</linearGradient>
<linearGradient id="paint1_linear_3:551" x1="15.8264" y1="0" x2="15.8264" y2="10.6667" gradientUnits="userSpaceOnUse">
<stop stop-color="#0D4B69" stop-opacity="0"/>
<stop offset="1" stop-color="#0D4B69" stop-opacity="0.5"/>
</linearGradient>
<linearGradient id="paint2_linear_3:551" x1="0" y1="3.83191" x2="12.2079" y2="22.5267" gradientUnits="userSpaceOnUse">
<stop stop-color="#B0EAFF"/>
<stop offset="1" stop-color="#59CAFF"/>
</linearGradient>
<clipPath id="clip0_3:551">
<rect width="24" height="24" fill="white"/>
</clipPath>
</defs>
</svg>
