<svg width="24" height="24" viewBox="0 0 24 24" fill="none" xmlns="http://www.w3.org/2000/svg">
<rect width="24" height="24" rx="8" fill="#5F9BFF"/>
<g clip-path="url(#clip0_3:1631)">
<path d="M17.2231 13.7718C17.6356 14.1418 18.2938 13.9309 18.4145 13.3902C18.7839 11.7359 18.5034 10.0234 17.6254 8.57C16.9071 7.38091 15.8482 6.46543 14.5886 5.92902C14.472 5.87936 14.4205 5.76194 14.4463 5.66596L14.4653 5.59499C14.5689 5.20833 14.3394 4.81089 13.9528 4.70729C13.5661 4.60368 13.1687 4.83315 13.0651 5.2198L13.046 5.29077C13.0203 5.38675 12.9171 5.46273 12.7913 5.44743C11.4322 5.28215 10.0574 5.54552 8.84081 6.21617C7.35376 7.03587 6.25463 8.3787 5.74738 9.99604C5.58158 10.5247 6.04621 11.0363 6.58834 10.9222C6.97302 10.8412 7.3612 10.852 7.74465 10.9547C8.35489 11.1182 8.87515 11.5025 9.21067 12.0376C9.41244 12.3594 9.8284 12.4709 10.164 12.2931C10.453 12.14 10.7645 12.047 11.0823 12.0154C11.1206 12.0116 11.1481 12.0251 11.1701 12.055C11.195 12.089 11.2098 12.144 11.1934 12.205L9.53211 18.4051C9.4285 18.7917 9.65796 19.1892 10.0446 19.2928C10.4313 19.3964 10.8287 19.1669 10.9323 18.7803L12.5936 12.5802C12.61 12.5192 12.6502 12.4789 12.6888 12.462C12.7227 12.4471 12.7533 12.4491 12.7846 12.4716C13.044 12.6578 13.2673 12.8941 13.4411 13.1712C13.6428 13.493 14.0588 13.6044 14.3944 13.4267C14.9526 13.131 15.5953 13.0583 16.2055 13.2218C16.5889 13.3245 16.9305 13.5093 17.2231 13.7718Z" fill="white"/>
</g>
<defs>
<clipPath id="clip0_3:1631">
<rect width="16" height="16" fill="white" transform="translate(4 4)"/>
</clipPath>
</defs>
</svg>
