<svg aria-hidden="true" style="position: absolute; width: 0; height: 0; overflow: hidden;" version="1.1" xmlns="http://www.w3.org/2000/svg" xmlns:xlink="http://www.w3.org/1999/xlink">
<defs>
<symbol id="icon-cloudy" viewBox="0 0 32 32">
<path fill="#000" style="fill: var(--color1, #000)" d="M28.538 14.222c1.917-0.209 3.444-1.833 3.444-3.824 0-1.803-1.252-3.365-2.912-3.704-0.455-3.757-3.576-6.694-7.362-6.694-2.663 0-4.996 1.425-6.305 3.586-0.032-0-0.065-0.010-0.097-0.010-2.807 0-5.083 2.443-5.083 5.323 0 2.779 2.119 5.114 4.79 5.323l13.526 0z"></path>
<path fill="#000" style="fill: var(--color1, #000)" opacity="0.25" d="M28.538 14.222c1.917-0.209 3.444-1.833 3.444-3.824 0-1.803-1.252-3.365-2.912-3.704-0.455-3.757-3.576-6.694-7.362-6.694-2.663 0-4.996 1.425-6.305 3.586-0.032-0-0.065-0.010-0.097-0.010-2.807 0-5.083 2.443-5.083 5.323 0 2.779 2.119 5.114 4.79 5.323l13.526 0z"></path>
<path fill="#000" style="fill: var(--color1, #000)" d="M22.025 22.887c2.865 0 5.199-2.437 5.199-5.335 0-2.438-1.58-4.475-3.803-5.139-0.059-2.172-1.835-3.906-4.023-3.906-0.636 0-1.235 0.156-1.77 0.419-0.946-2.244-3.167-3.817-5.756-3.817-2.823 0-5.207 1.875-5.979 4.446-3.336 0.402-5.894 3.201-5.894 6.646 0 3.608 2.772 6.686 6.429 6.686l15.597 0.001z"></path>
<path fill="#6dd1ff" style="fill: var(--color2, #6dd1ff)" d="M15.036 26.041l-3.15 5.511c-0.166 0.288-0.466 0.449-0.772 0.449-0.151 0-0.3-0.039-0.438-0.116-0.428-0.239-0.578-0.784-0.334-1.211l3.15-5.511c0.244-0.433 0.789-0.578 1.211-0.333 0.427 0.244 0.577 0.788 0.333 1.211zM19.761 26.041l-3.15 5.511c-0.166 0.288-0.466 0.449-0.772 0.449-0.151 0-0.301-0.039-0.438-0.116-0.429-0.239-0.578-0.784-0.334-1.211l3.15-5.511c0.244-0.433 0.789-0.578 1.211-0.333 0.427 0.244 0.577 0.788 0.333 1.211zM10.311 26.041l-3.15 5.511c-0.166 0.288-0.466 0.449-0.772 0.449-0.151 0-0.3-0.039-0.438-0.116-0.428-0.239-0.578-0.784-0.334-1.211l3.15-5.511c0.244-0.433 0.789-0.578 1.212-0.333 0.427 0.244 0.577 0.788 0.332 1.211z"></path>
</symbol>
<symbol id="icon-day_cloudy_lightning_rain_snow" viewBox="0 0 32 32">
<path fill="#000" style="fill: var(--color1, #000)" d="M28.547 14.222c1.917-0.209 3.444-1.833 3.444-3.824 0-1.803-1.252-3.365-2.912-3.704-0.455-3.757-3.576-6.694-7.362-6.694-2.663 0-4.996 1.425-6.305 3.586-0.033-0-0.065-0.010-0.097-0.010-2.807 0-5.083 2.443-5.083 5.323 0 2.779 2.119 5.114 4.79 5.323l13.526 0z"></path>
<path fill="#000" style="fill: var(--color1, #000)" opacity="0.2" d="M28.547 14.222c1.917-0.209 3.444-1.833 3.444-3.824 0-1.803-1.252-3.365-2.912-3.704-0.455-3.757-3.576-6.694-7.362-6.694-2.663 0-4.996 1.425-6.305 3.586-0.033-0-0.065-0.010-0.097-0.010-2.807 0-5.083 2.443-5.083 5.323 0 2.779 2.119 5.114 4.79 5.323l13.526 0z"></path>
<path fill="#000" style="fill: var(--color1, #000)" d="M22.035 22.887c2.865 0 5.199-2.437 5.199-5.335 0-2.438-1.58-4.475-3.803-5.139-0.059-2.172-1.835-3.906-4.023-3.906-0.636 0-1.235 0.156-1.77 0.419-0.946-2.244-3.167-3.817-5.756-3.817-2.823 0-5.207 1.875-5.979 4.446-3.336 0.402-5.894 3.201-5.894 6.646 0 3.608 2.772 6.686 6.429 6.686l15.597 0.001z"></path>
<path fill="#7bd6ff" style="fill: var(--color3, #7bd6ff)" d="M11.207 25.823l-1.626 2.844c-0.172 0.299-0.483 0.466-0.8 0.466-0.156 0-0.311-0.041-0.454-0.121-0.444-0.248-0.599-0.813-0.346-1.255l1.626-2.844c0.253-0.448 0.818-0.599 1.256-0.345 0.442 0.253 0.598 0.817 0.345 1.255z"></path>
<path fill="#7bd6ff" style="fill: var(--color3, #7bd6ff)" d="M3.478 31.535c-0.172 0.299-0.483 0.466-0.8 0.466-0.156 0-0.311-0.041-0.454-0.12-0.444-0.248-0.599-0.813-0.346-1.255l3.264-5.712c0.253-0.448 0.818-0.599 1.256-0.345 0.442 0.253 0.599 0.816 0.345 1.255l-3.265 5.712z"></path>
<path fill="#000" style="fill: var(--color1, #000)" d="M14.385 11.556l-3.055 9.028h4.772l-2.987 8.75 9.326-12.441-5.14-0.119 1.79-5.098-4.706-0.12z"></path>
<path fill="#7bd6ff" style="fill: var(--color3, #7bd6ff)" d="M24.827 25.769l-0.333-0.579c-0.092-0.158-0.296-0.213-0.454-0.121l-1.167 0.671v-1.183c0-0.183-0.15-0.333-0.333-0.333h-0.667c-0.183 0-0.333 0.15-0.333 0.333v1.183l-1.167-0.671c-0.158-0.092-0.363-0.038-0.454 0.121l-0.333 0.579c-0.092 0.158-0.038 0.362 0.121 0.454l1.163 0.667-1.163 0.667c-0.158 0.092-0.213 0.296-0.121 0.454l0.333 0.579c0.092 0.158 0.296 0.213 0.454 0.121l1.167-0.671v1.183c0 0.183 0.15 0.333 0.333 0.333h0.667c0.183 0 0.333-0.15 0.333-0.333v-1.183l1.167 0.671c0.158 0.092 0.363 0.037 0.454-0.121l0.333-0.579c0.092-0.158 0.038-0.363-0.121-0.454l-1.163-0.667 1.163-0.667c0.158-0.092 0.213-0.296 0.121-0.454z"></path>
</symbol>
<symbol id="icon-day_cloudy" viewBox="0 0 32 32">
<path fill="#000" style="fill: var(--color1, #000)" d="M28.547 19.111c1.917-0.209 3.444-1.833 3.444-3.824 0-1.803-1.252-3.365-2.912-3.704-0.455-3.757-3.576-6.694-7.362-6.694-2.663 0-4.996 1.425-6.305 3.586-0.033-0-0.065-0.010-0.097-0.010-2.807 0-5.083 2.443-5.083 5.323 0 2.779 2.119 5.114 4.79 5.323l13.526 0z"></path>
<path fill="#000" style="fill: var(--color1, #000)" opacity="0.2" d="M28.547 19.111c1.917-0.209 3.444-1.833 3.444-3.824 0-1.803-1.252-3.365-2.912-3.704-0.455-3.757-3.576-6.694-7.362-6.694-2.663 0-4.996 1.425-6.305 3.586-0.033-0-0.065-0.010-0.097-0.010-2.807 0-5.083 2.443-5.083 5.323 0 2.779 2.119 5.114 4.79 5.323l13.526 0z"></path>
<path fill="#000" style="fill: var(--color1, #000)" d="M22.035 28.22c2.865 0 5.199-2.437 5.199-5.335 0-2.438-1.58-4.475-3.803-5.139-0.059-2.172-1.835-3.906-4.023-3.906-0.636 0-1.235 0.156-1.77 0.419-0.946-2.244-3.167-3.817-5.756-3.817-2.823 0-5.207 1.875-5.979 4.446-3.336 0.402-5.894 3.201-5.894 6.646 0 3.608 2.772 6.686 6.429 6.686l15.597 0.001z"></path>
</symbol>
<symbol id="icon-day_lear" viewBox="0 0 32 32">
<path fill="#000" style="fill: var(--color1, #000)" d="M16 25.42l-4.025 3.023-1.487-4.822-5.025 0.069 1.618-4.779-4.106-2.911 4.106-2.911-1.618-4.78 5.025 0.070 1.487-4.822 4.025 3.022 4.025-3.022 1.487 4.822 5.026-0.070-1.619 4.78 4.106 2.911-4.106 2.911 1.619 4.779-5.026-0.069-1.487 4.822-4.025-3.023z"></path>
<path fill="#fff59d" style="fill: var(--color4, #fff59d)" d="M15.999 23.186c3.969 0 7.186-3.218 7.186-7.187s-3.217-7.187-7.186-7.187c-3.969 0-7.186 3.218-7.186 7.187s3.217 7.187 7.186 7.187z"></path>
</symbol>
</defs>
</svg>
