<svg width="24" height="24" viewBox="0 0 24 24" fill="none" xmlns="http://www.w3.org/2000/svg">
<rect width="24" height="24" rx="8" fill="#5F9BFF"/>
<g clip-path="url(#clip0_3:1511)">
<path d="M5.65482 8.87567L5.65308 8.87715C5.23496 9.23765 4.60365 9.19121 4.24292 8.77321C3.8821 8.35509 3.92917 7.72309 4.34729 7.36226L4.45572 7.27157C4.52109 7.21794 4.61418 7.14308 4.72984 7.05404C4.96011 6.87678 5.28514 6.63923 5.663 6.39999C6.36154 5.9577 7.45145 5.36987 8.49999 5.36987C9.61386 5.36987 10.3748 6.0296 10.8441 6.43654L10.9033 6.4878C11.4538 6.96285 11.6899 7.11987 12 7.11987C12.3101 7.11987 12.5462 6.96285 13.0967 6.4878L13.1559 6.43654C13.6252 6.0296 14.3861 5.36987 15.5 5.36987C16.5485 5.36987 17.6384 5.9577 18.337 6.39999C18.7149 6.63923 19.0399 6.87678 19.2701 7.05404C19.3858 7.14308 19.4789 7.21794 19.5443 7.27157C19.575 7.29677 19.6279 7.3414 19.6495 7.35958L19.6533 7.3628C20.0714 7.72363 20.1179 8.35509 19.7571 8.77321C19.3964 9.19112 18.7648 9.23721 18.3467 8.87694L18.3452 8.87567L18.3325 8.86495C18.3205 8.85479 18.3013 8.83879 18.2757 8.81778C18.2244 8.77571 18.1476 8.71385 18.0501 8.63883C17.8542 8.48797 17.5802 8.28801 17.2671 8.08976C16.5837 7.65704 15.9236 7.36987 15.5 7.36987C15.1899 7.36987 14.9538 7.5269 14.4033 8.00194L14.3441 8.05321C13.8748 8.46015 13.1139 9.11987 12 9.11987C10.8861 9.11987 10.1252 8.46015 9.65588 8.05321L9.59666 8.00194C9.04618 7.5269 8.81012 7.36987 8.49999 7.36987C8.07641 7.36987 7.41632 7.65704 6.73289 8.08976C6.41977 8.28801 6.14582 8.48797 5.94986 8.63883C5.85241 8.71385 5.77556 8.77571 5.72428 8.81778C5.69867 8.83879 5.67953 8.85479 5.66748 8.86495L5.65482 8.87567Z" fill="white"/>
<path d="M5.65482 13.6257L5.65308 13.6272C5.23496 13.9877 4.60365 13.9412 4.24292 13.5232C3.8821 13.1051 3.92917 12.4731 4.34729 12.1123L4.45572 12.0216C4.52109 11.9679 4.61418 11.8931 4.72984 11.804C4.96011 11.6268 5.28514 11.3892 5.663 11.15C6.36154 10.7077 7.45145 10.1199 8.49999 10.1199C9.61386 10.1199 10.3748 10.7796 10.8441 11.1865L10.9033 11.2378C11.4538 11.7128 11.6899 11.8699 12 11.8699C12.3101 11.8699 12.5462 11.7128 13.0967 11.2378L13.1559 11.1865C13.6252 10.7796 14.3861 10.1199 15.5 10.1199C16.5485 10.1199 17.6384 10.7077 18.337 11.15C18.7149 11.3892 19.0399 11.6268 19.2701 11.804C19.3858 11.8931 19.4789 11.9679 19.5443 12.0216C19.575 12.0468 19.6279 12.0914 19.6495 12.1096L19.6533 12.1128C20.0714 12.4736 20.1179 13.1051 19.7571 13.5232C19.3964 13.9411 18.7648 13.9872 18.3467 13.6269L18.3452 13.6257L18.3325 13.615C18.3205 13.6048 18.3013 13.5888 18.2757 13.5678C18.2244 13.5257 18.1476 13.4639 18.0501 13.3888C17.8542 13.238 17.5802 13.038 17.2671 12.8398C16.5837 12.407 15.9236 12.1199 15.5 12.1199C15.1899 12.1199 14.9538 12.2769 14.4033 12.7519L14.3441 12.8032C13.8748 13.2101 13.1139 13.8699 12 13.8699C10.8861 13.8699 10.1252 13.2101 9.65588 12.8032L9.59666 12.7519C9.04618 12.2769 8.81012 12.1199 8.49999 12.1199C8.07641 12.1199 7.41632 12.407 6.73289 12.8398C6.41977 13.038 6.14582 13.238 5.94986 13.3888C5.85241 13.4639 5.77556 13.5257 5.72428 13.5678C5.69867 13.5888 5.67953 13.6048 5.66748 13.615L5.65482 13.6257Z" fill="white"/>
<path d="M5.65482 18.3757L5.65308 18.3772C5.23496 18.7377 4.60365 18.6912 4.24292 18.2732C3.8821 17.8551 3.92917 17.2231 4.34729 16.8623L4.45572 16.7716C4.52109 16.7179 4.61418 16.6431 4.72984 16.554C4.96011 16.3768 5.28514 16.1392 5.663 15.9C6.36154 15.4577 7.45145 14.8699 8.49999 14.8699C9.61386 14.8699 10.3748 15.5296 10.8441 15.9365L10.9033 15.9878C11.4538 16.4628 11.6899 16.6199 12 16.6199C12.3101 16.6199 12.5462 16.4628 13.0967 15.9878L13.1559 15.9365C13.6252 15.5296 14.3861 14.8699 15.5 14.8699C16.5485 14.8699 17.6384 15.4577 18.337 15.9C18.7149 16.1392 19.0399 16.3768 19.2701 16.554C19.3858 16.6431 19.4789 16.7179 19.5443 16.7716C19.575 16.7968 19.6279 16.8414 19.6495 16.8596L19.6533 16.8628C20.0714 17.2236 20.1179 17.8551 19.7571 18.2732C19.3964 18.6911 18.7648 18.7372 18.3467 18.3769L18.3452 18.3757L18.3325 18.365C18.3205 18.3548 18.3013 18.3388 18.2757 18.3178C18.2244 18.2757 18.1476 18.2139 18.0501 18.1388C17.8542 17.988 17.5802 17.788 17.2671 17.5898C16.5837 17.157 15.9236 16.8699 15.5 16.8699C15.1899 16.8699 14.9538 17.0269 14.4033 17.5019L14.3441 17.5532C13.8748 17.9601 13.1139 18.6199 12 18.6199C10.8861 18.6199 10.1252 17.9601 9.65588 17.5532L9.59666 17.5019C9.04618 17.0269 8.81012 16.8699 8.49999 16.8699C8.07641 16.8699 7.41632 17.157 6.73289 17.5898C6.41977 17.788 6.14582 17.988 5.94986 18.1388C5.85241 18.2139 5.77556 18.2757 5.72428 18.3178C5.69867 18.3388 5.67953 18.3548 5.66748 18.365L5.65482 18.3757Z" fill="white"/>
</g>
<defs>
<clipPath id="clip0_3:1511">
<rect width="16" height="16" fill="white" transform="translate(4 4)"/>
</clipPath>
</defs>
</svg>
