<svg width="24" height="24" viewBox="0 0 24 24" fill="none" xmlns="http://www.w3.org/2000/svg">
<rect width="24" height="24" rx="8" fill="#5F9BFF"/>
<path fill-rule="evenodd" clip-rule="evenodd" d="M5 12C5 8.13597 8.13597 5 12 5C15.864 5 19 8.13597 19 12C19 15.864 15.864 19 12 19C8.13597 19 5 15.864 5 12ZM10.6164 17.3373C10.9799 17.4308 11.3103 17.1376 11.3103 16.7623C11.3103 16.4175 11.0169 16.15 10.7073 15.9982C10.2487 15.7734 9.93104 15.3013 9.93104 14.7586V14.4976C9.93104 14.2231 9.82202 13.9599 9.62797 13.7659L7.50831 11.6462C7.12639 11.2643 6.48278 11.4599 6.48278 12C6.48278 14.5697 8.2371 16.7252 10.6164 17.3373ZM15.2225 14.7741C15.938 14.8086 16.763 14.8484 17.0246 14.2745C17.3405 13.5816 17.5172 12.8118 17.5172 12C17.5172 9.78975 16.2106 7.88247 14.3282 7.00279C14.2058 6.94559 14.069 7.03734 14.069 7.17243C14.069 7.93105 13.4483 8.55174 12.6897 8.55174H12.3451C11.7736 8.55174 11.3103 9.015 11.3103 9.58647V9.93104C11.3103 10.3104 11 10.6207 10.6207 10.6207H9.93104C9.55016 10.6207 9.24139 10.9295 9.24139 11.3103C9.24139 11.6912 9.55016 12 9.93104 12H13.3793C13.7586 12 14.069 12.3103 14.069 12.6897V14.069C14.069 14.4498 14.3777 14.7586 14.7586 14.7586C14.9023 14.7586 15.0596 14.7662 15.2225 14.7741Z" fill="white"/>
</svg>
